<?xml version="1.0" encoding="utf-8"?>
<!-- Generator: Adobe Illustrator 20.0.0, SVG Export Plug-In . SVG Version: 6.00 Build 0)  -->
<svg version="1.1" xmlns="http://www.w3.org/2000/svg" xmlns:xlink="http://www.w3.org/1999/xlink" x="0px" y="0px"
	 viewBox="0 0 640 480" style="enable-background:new 0 0 640 480;" xml:space="preserve">
<style type="text/css">
	.st0{fill:#0061FF;}
	.st1{fill:#FFD600;}
</style>
<g id="Vrstva_1">
	<g id="Layer_1">
		<title>africa</title>
		<rect y="0" class="st0" width="639.4" height="480"/>
	</g>
</g>
<g id="Vrstva_2">
	<g>
		<path class="st1" d="M496.4,179.9c-1-2.6-1.7-5.5-2.3-8.4c-0.1-0.7-6.2-0.8-6.9-0.9c-4.7-3.4-10.3-9.3-15.6-11.2
			c-6.4-2.3-12.9-4.6-19.3-6.9s-12.9-4.6-19.3-6.9c-1.1-0.4-2.8-3.5-3.4-4.5c-3-4-6.1-7.8-9-11.8c-3-3.9-6.6-11.7-11.4-12.9
			c-5-1.2-13.7-1.3-17.5-5.1c-6.3-6-12.5-12-18.7-18c-3.3-3.2-7.7-3.3-12-4.3c-8.1-1.9-16-3.7-24-5.6c-3.1-0.7-8.6-3.4-11.7-2.3
			c-3.4,1.2-6.7,2.4-10.1,3.6c-1.2,0.4-5.8,1.2-6.6,2.4c-2.4,4.1-10.8,22.7-10.9,23.5c-0.2,1,0.4,3.7,0.2,4c-1.4,1.4-0.2,2.4,0,4.4
			c1.2,8.6-2.9,12.1-7.6,18.1c-2.1,2.8-4.2,5.4-6.4,8.2c-1.4,1.8-1.7,6.7-2.2,8.9c-1.1,4.4-5,12.4-2.6,16.7
			c3.7,6.9,7.5,13.9,11.1,20.8c4.5,8.5,9,16.9,13.6,25.4c2.3,4.3,3.3,6.8,7.1,9.4c3.6,2.5,7.3,5.1,11,7.6c1.9,1.3,6.1,3.1,7.4,5.2
			c1.2,2,0.9,7.4,1.2,9.7c0.4,3.4,1.4,7.5,1.3,10.9c-0.2,4.1-1.7,8.6-2.4,12.7c-1.8,9.5-3.6,19-5.4,28.5c-3,15.7-6,31.3-8.9,46.9
			c-2.3,12.5-2.9,25.5-4.3,38c-1.4,13-3,26.1-4.4,39.2c-1,8.7,4.4,16.4,7.8,24.4c1.4,3.3,1.9,6.7,5,8.3c6,2.9,11.9,5.7,17.9,8.6
			c4.1,2,4.9,3.1,8.9,1.2c5.1-2.3,10-4.6,15.1-6.8c-5.5-0.1-8.5,0.6-12.8-3.2c-2.4-2.1-5-4.2-7.4-6.4c-1.1-0.9-1-4.1-1.3-5.4
			c-0.7-3.6-4.3-13.8-1-15.7c3.3-2,4.3-2.1,5.5-6c0.8-2.5,3.2-4.5,4.9-6.5c1.9-2.2,2.4-3.3,3.3-6.3c0.9-3-3.4-1.4-4.7-3.2
			c-1-1.4-4.4-4.6-3.5-6.3c1.4-2.6,2-5.1,4.7-5.8c3.3-0.8,3.7-0.4,5.2-3.6c1.4-3.2,3-6.4,4.4-9.6c0.8-1.7-2.1-4.5-2.4-6.3
			c-0.6-2.3,0.1-5.6,0.1-8.1c4.9,2.4,7.6,3.9,12.2,0.6c1-0.8,0.2-3.5,0.9-5.3c1.1-2.8,0.3-4.1-0.6-6.9c4.6,0.9,6.8,1,11.5-0.2
			c4.7-1.3,8.7-1.2,11.7-5.5c1-1.5,3.6-4.1,4.1-6c0.3-2-1.2-6-1.7-7.9c-0.9-4.2-8.8-4.6-7.6-9.5c2.2,0.7,16.2,6.7,17.2,5.4
			c4.4-5.7,8.9-11.5,13.3-17.2c4.9-6.3,9.7-12.6,14.6-18.7c1.2-1.5,0.9-4.7,1.1-6.5c0.2-1.5,0.1-10.4,1.3-11.1
			c5.8-4,11.7-8.1,17.6-12.1c2-1.3,7.3-0.6,9.6-0.7c2.4-0.1,3.5-3.5,4.9-5.5c3.1-4.7,9.2-10.7,9.6-16.7c0.7-8.9,1.3-17.9,1.9-26.7
			c0.2-3.5,2.6-5.7,4.6-8.6c4.2-6.1,8.4-12,12.6-18.1C498,185.9,497.9,186,496.4,179.9z"/>
		<path class="st1" d="M306.7,40.3c2-0.6,3.9-1.1,5.7-1.7c-1.5-1.2-2.6-2.3-4.5-2.8c-1.3-0.2-2.1-2.3-2.8-2.2
			c-2.6,0.2-6-1.4-7.7-3.7c-0.1,0.2-0.2,0.4-0.3,0.7c-5.6-3.7-11.7-7.2-18.2-7.8c-3.9-0.3-6.8,0.4-10.6,1.4
			c-3.1,0.8-3.9,3.7-6.3,5.2c4.9,2.5,10.4-8.4,15.2-3.5c-0.8,0.3-1.3,0.8-2.4,0.4c0.9,1.1,2.3,1.7,3.5,1.3c1.5-0.4,1.7,0.7,3.3,0.8
			c2.6,0.1,5.2,2,7.9,2.4c2.6,0.3,2.8,3.4,5.6,4.9c0.8,0.3,3.6-0.4,3.6,1.5c0,0.7-2.4,2.4-2.9,3C299.5,40.9,303.1,40,306.7,40.3z"/>
		<path class="st1" d="M293.2,48.9c1.9,1.3,3.2,2.2,5.4,2.9c1.1,0.3,2.4-1.5,4.4-0.9c-0.3-0.6-0.7-1.2-1.1-1.8
			C299.4,48.4,295.2,46,293.2,48.9z"/>
		<path class="st1" d="M345.8,49.9c1.1,2.8,5.8,0.6,6.9-1.2c-0.2-0.3-0.6-0.6-0.8-0.8C349.9,47.8,344.2,46.1,345.8,49.9z"/>
		<path class="st1" d="M319.3,49.6c1.1,0.2,2.9-0.4,3.9,0c0.8,0.3,0.4,3.7,2.4,3.1c0.9-0.3,0.9-3.4,1.7-4c1.4-1,1.8,0.4,2.3,0.4
			c2.5-0.1,4.3-0.9,7.2-0.9c2.1,0,1.7,1.9,3.2-0.6c0.6-1-1.5-2.3-2.5-2.5c-2.3-0.4-2.5-0.4-3.6-2.8c-0.9-1.8-1-0.6-2.5-1.1
			c-1.1-0.3-3-1.5-4.2-1c-0.4,0.3-2.6,0.9-3.1,0.8c-3.4-0.1-4.4-1.1-7.7,0.4c3.4,1.7,3.1,2.8,5.2,6c-2.1,1.5-10.8-2-9.8,1.1
			C314.3,50.6,315.6,48.9,319.3,49.6z"/>
		<path class="st1" d="M274.8,1.6c0.8,1.7,1.5,3.1,2.1,5.2c0.1,0.2,2.9,2.8,3.3,3.4c1.5,2.2,2.6,0.4,4-0.9c1.6-1.6,1.2-6.6,0.7-9.4
			H274C274.2,0.5,274.5,1,274.8,1.6z"/>
		<path class="st1" d="M125.3,1.2c1.4,1.2,2.6,0.8,3.9,1.8c1.3,1.1,4.1,2.3,4.2,4.3c0.1,1.2-0.2,5.6,0.7,6.3
			c3.3,2.4,7.1,4.7,9.2,8.5c1,1.9,3.1,1.3,3.4-1.1c0.2-1.8-2.1-4-3.3-4.9c-1.1-0.8-2.5,1.8-2.8-1.8c-0.1-2.3-1-4.2-1.9-6.4
			c-0.8-2-1.2-4.2-2.8-5.5c-1.1-1-1.8-1.6-2.4-2.4H124C124.4,0.4,124.9,0.8,125.3,1.2z"/>
		<path class="st1" d="M279.9,103.8c1.7,4,1.5,3.5,5.2,2c-0.4-0.8-2.3-3-1.7-3.5c1.2-1.1,2.3-2.3,3.7-3.1c1.9-1,1.9-1.2,3.7-0.1
			c2.5,1.4,3.4,0.6,3.3,3.7c0,1.1,0.8,2.6,2.1,1.2c1.2-1.3,1.2-1.5,1.4-3.3c0.3-2.6-3.4-3.4-6.4-4.3c-4.2-1.2-6.2,0.3-10.1,2
			c-6.4,2.6-15-8.9-14.1-16c0.2-1.4,1.4-2.8,1.7-4.3c0.4-2.6,0.8-5.2,1.2-7.8c0.7-4.1-1.7-6.5-5.1-8.1c-1.7-0.8-4.1-0.7-5.8-0.9
			c-1.5-0.2-2.8,1.1-4.3,0.9c-4.2-0.7-7.7,0.3-11.5-0.9c1.1-1.1,4-4.2,3.2-6c-0.9-1.9,2.1-6.9-0.6-7.1c0.3-0.8,0.9-1.8,1.4-2.3
			c-0.2,1.3,0.1,2.6,1,3.5c0.4-2.1,0.8-4.2,1.7-6.2c-0.2,0.2-0.6,0.3-0.8,0.6l-0.2-0.3c0.6-0.3,1-1,1.4-1.4c-1.4,0-1.1-0.6-1.7-0.9
			c1.2-0.1,3.5-5.1,4.2-6.8c1.8-4.3-3.9-3.1-5.8-3.3c-1.5-0.2-6.3,1-7.7,1.5c-3.5,1.4-3.2,5.3-4.2,8.6c-0.6,2-1.3,2.4-2.8,3.7
			c-0.6,0.6,0.4,1.5,0,1.9c-0.6,0.4-1.5,0.8-2.2,1c-0.7,0.3-1.7-1.3-2.9-1.2c-1.8,0.1-3,0.4-4.6,1.1c-1.8,0.7-3.4,1.2-5.2,2
			c-0.8,0.2-2.1-1.9-3-2.2c-4.2-1.2-5.1-3.9-7.7-7.7c-4.3-6.5-5.3-12.1-5.4-20c0-3.1,1.3-6.2,2.1-9.2c0.3-1.1,1.2-3,1.1-4.1
			c-0.1-1.7-2.3-3.4-2.3-5.1c0-0.5,0.1-1,0.2-1.5h-59c0.5,0.6,0.9,1.2,1.4,1.9c0.6,0.7,2.2,2.2,2,3.1c-0.1,0.9-1.1,2.9-0.3,3.5
			c3.1,2.9,6.3,5.7,9.4,8.7c2,1.8,3.1,3.3,4.6,5.5c1.3,2,5.8,6.8,5.2,9.3c-1.1,3.7-2.8,5.4,0,8.2c2.9,3,5.7,5.8,8.7,8.8
			c1.1,1.1,3.7,1.5,5.2,2.1c4.4,1.8,8.9,3.5,13.3,5.4c5.5,2.2,11.4,6.4,17.2,4.6c2.5-0.8,5.5-3,7.7-0.9c3.2,3.2,6.5,6.4,9.7,9.6
			c3.6,3.6,11.5,4,16.2,5.3c6.1,1.7,8.7,6.2,13,11.1c1.7,2,1,5.2,2.4,7.3c1.5,2.5,6.1,4.6,8.4,6.4c1.1,0.9,2.2,1.7,3.3,2.5
			c0.7,0.4,1.3-0.8,2.4-0.6C275.5,102.3,279.3,106,279.9,103.8z"/>
	</g>
</g>
</svg>
