<svg id="Vrstva_2" data-name="Vrstva 2" xmlns="http://www.w3.org/2000/svg" viewBox="0 0 639.08 480.08"><defs><style>.cls-1{fill:#039;}.cls-2{fill:#fc0;stroke:#e6f32e;stroke-opacity:0.21;stroke-width:0.97px;}</style></defs><title>European_union</title><rect id="flag_rectangle" data-name="flag rectangle" class="cls-1" width="639.08" height="480.08"/><path id="flag_star" data-name="flag star" class="cls-2" d="M490.27,259.56,474.88,248l-16.07,11.47L465,241.26l-15.87-11.74,19.25.29,6.26-18.72,5.67,18.4,19.74.17-15.74,11.08Z" transform="translate(-0.46 0.04)"/><g id="use10441"><path id="flag_star-2" data-name="flag star" class="cls-2" d="M469.4,181.68,454,170.13,437.93,181.6l6.23-18.22-15.87-11.74,19.25.29,6.26-18.72,5.67,18.4,19.74.17-15.74,11.08Z" transform="translate(-0.46 0.04)"/></g><g id="use10444"><path id="flag_star-3" data-name="flag star" class="cls-2" d="M414,125.49l-15.4-11.55L382.54,125.4l6.23-18.22L372.89,95.45l19.25.29L398.4,77l5.67,18.4,19.74.17-15.74,11.08Z" transform="translate(-0.46 0.04)"/></g><g id="use10445"><path id="flag_star-4" data-name="flag star" class="cls-2" d="M336.14,103.81l-15.4-11.55-16.07,11.47,6.23-18.22L295,73.77l19.25.29,6.26-18.72,5.67,18.4,19.74.17L330.19,85Z" transform="translate(-0.46 0.04)"/></g><g id="use10446"><path id="flag_star-5" data-name="flag star" class="cls-2" d="M259.07,124.68l-15.4-11.55L227.6,124.6l6.23-18.22L218,94.65l19.25.29,6.26-18.72,5.67,18.4,19.74.17-15.74,11.08Z" transform="translate(-0.46 0.04)"/></g><g id="use10447"><path id="flag_star-6" data-name="flag star" class="cls-2" d="M201.26,180.88l-15.4-11.55L169.8,180.8,176,162.58l-15.87-11.74,19.25.29,6.26-18.72,5.67,18.4,19.74.17-15.74,11.08Z" transform="translate(-0.46 0.04)"/></g><g id="use10448"><path id="flag_star-7" data-name="flag star" class="cls-2" d="M180.39,258.75,165,247.2l-16.07,11.47,6.23-18.22-15.87-11.74,19.25.29,6.26-18.72,5.67,18.4,19.74.17-15.74,11.08Z" transform="translate(-0.46 0.04)"/></g><g id="use10449"><path id="flag_star-8" data-name="flag star" class="cls-2" d="M201.26,338.23l-15.4-11.55L169.8,338.15,176,319.93,160.15,308.2l19.25.29,6.26-18.72,5.67,18.4,19.74.17-15.74,11.08Z" transform="translate(-0.46 0.04)"/></g><g id="g11182"><path id="flag_star-9" data-name="flag star" class="cls-2" d="M257.46,396l-15.4-11.55L226,396l6.23-18.22L216.35,366l19.25.29,6.26-18.72,5.67,18.4,19.74.17-15.74,11.08Z" transform="translate(-0.46 0.04)"/><path id="flag_star-10" data-name="flag star" class="cls-2" d="M335.33,416.91l-15.4-11.55-16.07,11.47,6.23-18.22-15.87-11.74,19.25.29,6.26-18.72,5.67,18.4,19.74.17-15.74,11.08Z" transform="translate(-0.46 0.04)"/><path id="flag_star-11" data-name="flag star" class="cls-2" d="M413.21,396l-15.4-11.55L381.74,396,388,377.74,372.09,366l19.25.29,6.26-18.72,5.67,18.4,19.74.17-15.74,11.08Z" transform="translate(-0.46 0.04)"/><path id="flag_star-12" data-name="flag star" class="cls-2" d="M471,338.23l-15.4-11.55-16.07,11.47,6.23-18.22L429.89,308.2l19.25.29,6.26-18.72,5.67,18.4,19.74.17-15.74,11.08Z" transform="translate(-0.46 0.04)"/></g></svg>